<svg xmlns="http://www.w3.org/2000/svg" fill="#3cb371" width="853.333" height="1706.667" version="1.0" viewBox="0 0 640 1280">
  <path d="M514.6 2.3C511.8 13.5 501 153.4 501 178.7c0 11.4-.3 13.3-3.2 21.7-3.7 10.9-4.2 18.5-1.3 23.3 3.2 5.4 5.5 5.8 30.9 5.5 12.6-.1 23.1-.4 23.3-.5.5-.5 2.3-10.6 3.4-18.7.5-4.1 1.4-22.1 1.9-40 1.1-35.3 1.9-49.9 5.1-95.2l2.2-29.7-9.1-10.8C543.1 21 531.4 9.5 523.6 4.1c-6.8-4.7-8.2-5-9-1.8zM450.5 202.9c15.1 7.3 30.9 16 38.7 21.2 3.3 2.2 6.2 3.8 6.4 3.6.2-.2-.9-2.2-2.5-4.4-3.3-4.6-9.5-9.8-16.2-13.7-4.8-2.7-33.5-12.6-36.6-12.6-1 0 3.6 2.6 10.2 5.9zM451.5 224c-1.6.6-7 3-12 5.3l-9 4.4 13.5.7c12.9.7 37.1-.5 46.5-2.3l4-.8-3-1.2c-11-4.6-33.8-8.1-40-6.1zM487 234.1c-6.1 1.2-9.8 2.7-13.9 5.7-5.1 3.8-6.1 7.4-6.1 21.4l.1 12.3 5-5.5c8.9-9.7 23.9-31.2 23.9-34.2 0-1-3-.9-9 .3zM496.1 237.1c-1.9 6.3-1.5 18.1.7 23.1 1.8 4 10.8 16.6 16.7 23.3l2.6 3-.7-6.5c-.8-8.3-4.5-22.9-7.8-31-2.4-6-8.5-16-9.7-16-.3 0-1.1 1.8-1.8 4.1z"/>
  <path d="M511 243.7c0 2.1 1.6 10.1 3.6 17.8 3.5 13.8 5.6 31.5 3.8 31.5-1.4 0-9.5-8.8-13.8-14.8-2-3-6-9.6-8.7-14.8-2.8-5.2-5.5-9.6-6-10-1.3-.8-1.6.6-2.8 17.6-2.2 29.2-15 146.5-19.1 174.5-1.7 12.2-4.4 21.7-11.4 41.2-2.8 7.7-3.3 14.2-1.5 16 .8.8 3.5 1 7.8.6 3.6-.3 13.3.2 21.5 1.1 23.9 2.6 32.7 2 34-2.1 2.5-7.8 17.8-107.8 24.1-156.3 5-39.2 8.5-79.8 8.5-99.1v-3.6l-14.2-1.7c-7.9-.9-16.9-1.6-20-1.6H511v3.7zM300.5 320.7c-.4 1-1.1 31-1.6 66.8-1 83.8-1 84.1-7.4 99.1-1.9 4.5-3.5 8.7-3.5 9.4 0 1.4 8.3 1.1 30.5-1 5.5-.5 15.3-.9 21.8-1h11.9l-.6-54.3c-.4-29.8-.9-62.5-1.2-72.6l-.6-18.3-13.2-8.6C320.9 329.9 303 319 302 319c-.4 0-1.1.8-1.5 1.7zM303.3 506c-5.8 1.2-8 2.5-10 6.3-1.6 2.8-1.8 5.8-1.6 22.7.1 19.6 2.9 62.9 5.9 91.1 2.1 20 4.2 28.3 9.4 36 6.3 9.1 8.3 14.4 9 23.7.5 5.5 1.2 8.8 2.3 9.9 3.3 3.3 28.3 2.5 36.1-1.2 5.5-2.6 6.1-5.4 6-28-.2-19-1.1-36.2-6.9-122.9-1.4-20.3-2.5-37.2-2.5-37.7 0-1.1-42-1-47.7.1zM453.7 509.2c-2 1.5-6.1 20.8-17.7 84.3-8.8 48.3-14.5 83.2-20.5 125.6-4.9 34.2-5.2 41.1-2 44.3 1.2 1.1 8.9 2.9 22 5 4.6.7 28.5-1.4 32-2.8 3-1.3 3.2-1.6 5.3-13.7 2.7-15.3 7.3-43.6 15.2-94.4 3.6-22.8 9-52.5 13.1-71.5 11.5-53.4 12.7-59.2 13-66.4.4-6.8.4-6.9-2.3-7.7-2.6-.7-20.6-2.1-45.3-3.4-8.4-.5-11.4-.3-12.8.7zM290.2 661.2c4.7 5.1 11.2 12.8 14.6 17.1 5.6 7.1 6.2 7.6 6.2 5-.1-7.4-8-17.6-20.5-26.2-4-2.8-7.6-5.1-8-5.1-.4 0 3.1 4.2 7.7 9.2zM239 678.3l-8.5 1 4.5 1.4c13.8 4.1 60.4 13 63.2 12.1 1.9-.7-14.6-9.2-24-12.4-10.7-3.7-18.1-4.2-35.2-2.1zM299 680.2c0 3.3 3 8.6 6.5 11.2 2 1.6 3.8 2.6 4.1 2.4.2-.2-1.7-3.3-4.2-6.9-5.9-8.2-6.4-8.7-6.4-6.7zM270.8 700.5c-9.4 2.6-14 5.7-24.5 16.4-5.6 5.8-10 10.7-9.8 10.9 1.5 1.5 63.5-25.8 63.5-28 0-1.3-24-.8-29.2.7zM302.3 706.9c-7.8 6.2-15.2 14.7-17.9 20.5-2.3 5-2.4 6.4-2.2 17.7l.3 12.3 3.9-5.4c6.2-8.5 14.2-22.5 17.5-30.5 3-7.2 5.5-18.5 4-18.5-.4 0-2.9 1.7-5.6 3.9zM311.8 713.2c-.9 3.6-3.8 11.1-6.4 16.8l-4.8 10.2 2.3 30.2c3.6 48 9 114.7 9.7 119.3 1.1 7.6 1.8 7.8 24.8 7.8h20.1l8.3-4.8c6.2-3.7 8.2-5.4 8.2-7 0-1.8-3.2-46-10.9-151.5-1-13.9-2.2-25.6-2.5-26-.4-.4-11.2-.8-23.9-1l-23.2-.4-1.7 6.4zM512 756.1c-4.1 1.1-7.9 2.5-8.5 3.1-.7.8-.5.9.8.4 1-.3 12.5-.6 25.5-.6 13.8 0 23.1-.4 22.2-.9-2.5-1.5-19.9-4.1-26.4-4-3.4 0-9.5.9-13.6 2zM499 775.9c0 1 13.6 13.4 24 21.7 15.2 12.2 28 21.4 28 20.2 0-.7-2.3-5.9-5.1-11.5-5.8-11.7-9.9-15.9-20.7-21.6-10.2-5.3-26.2-10.7-26.2-8.8zM411.5 777c-1.2.4-2.6 1.5-3.3 2.3-1.7 2-14.1 93.1-12.9 94.3.3.3 2.5 0 4.8-.7 3.1-1 11.8-1.3 30.2-1.2 14.1.1 25.7-.2 25.8-.5 0-.4 1.5-12.4 3.3-26.7 1.8-14.3 3.1-26.2 3-26.4-.2-.2-2.7 1.2-5.6 3.2-11.8 7.7-41.2 22.6-42.5 21.3-.7-.6 3.2-7.3 11-19.1 8.3-12.5 13.6-19.2 24.9-32 7.1-7.9 9.4-11.1 8.4-11.7-4.7-2.6-42.1-4.9-47.1-2.8z"/>
  <path d="M472.5 779.2c-8.2 6.4-21.9 20.6-29.4 30.3-8.3 10.7-14.1 19-14.1 20s14.3-6.9 23.2-12.8c10.7-7 18.6-18.2 23.9-33.6 2.9-8.4 2.5-8.8-3.6-3.9zM488.7 779.9c-.9 4.3-.9 50.9-.1 59 .4 3.3 1 6.1 1.4 6.1.4 0 3.8-6 7.5-13.4 6-11.8 6.8-14.3 7.3-20.5.3-4.3 0-8.9-.8-11.7-1.3-4.7-6.5-13.3-11.7-19.3l-3-3.5-.6 3.3zM405 877.5c-3.6.7-7.6 1.8-9 2.4-2.1 1-1.6 1.1 3 .7 9.5-.8 33.5-3.8 33.9-4.2 1-1-22-.1-27.9 1.1zM432 882.2c-13.8 1.4-37.1 4.7-38.1 5.3-2.3 1.5-.3 2.4 8.4 3.9 21 3.8 29.9 7.7 40.3 18l7.3 7.1.6-3.5c1.7-10.3 4.1-31.1 3.7-31.5-.8-.7-12.3-.4-22.2.7z"/>
  <path d="M389.3 896.4c5.3 4 54.3 25.3 55.5 24.1 1-.9-12-13.5-16.3-15.7-6.6-3.4-14.4-5.7-26.3-7.8-13.9-2.4-15.4-2.5-12.9-.6zM359.8 903.4c-3.6 3-9.7 9.3-13.6 14-7.5 9.1-18.7 25.4-18 26.1.7.7 16.9-9.2 23.2-14.2 6.2-4.8 10.5-10.9 13.5-18.8 2.5-6.5 3.6-12.5 2.4-12.5-.5 0-3.9 2.4-7.5 5.4zM378.5 903.2c1.2 9.4 4.5 25 7.7 36.1 2.6 8.8 3.4 10.6 4.4 9.5 1.6-1.6 8-18.1 8.9-22.9.9-5-1-11.3-4.8-15.6-3.4-3.9-14.3-12.3-15.9-12.3-.6 0-.7 2-.3 5.2z"/>
  <path d="M334 905.2c-8 .4-15.8 1.1-17.5 1.6l-3 .9.2 29.9c.1 16.4 1.1 55 2.2 85.7l2.1 55.8 3.3 3.2c1.8 1.8 4 4.3 4.9 5.7l1.5 2.5 21.7-.2c19-.2 22.2-.5 26.1-2.2 3.2-1.4 4.3-2.4 4-3.8-.4-1.9-1.6-33.8-4-110.3-1.7-52.2-2.4-65-3.6-65-.5 0-.9.5-.9 1.1 0 .6-1.4 3.9-3.2 7.4-5.6 11.4-17.6 21.1-40 32.5-6.4 3.3-11.9 6-12.2 6-.9 0 2.7-6.9 8.7-17 4.8-8.1 14.8-22 21.8-30.3 1.7-2.1 3-3.9 2.8-4-.2-.1-6.9.1-14.9.5zM403.5 914.1c3.2 9 1 18.7-9.6 41.6l-4.1 8.8-2.3-4.5c-2.7-5.1-3.1-4.7-4.4 4.9-.8 6.3-.7 6.6 3 13.5 6.6 12.5 8.7 27 5.4 38-.8 2.7-1.4 5.1-1.2 5.3 1 .9 31 2.5 35.9 1.9 9.1-1.2 10.3-2.7 12.2-15.3 2.2-14.8 9.6-74.5 9.6-77.6 0-2.2-.8-2.9-5.7-4.7-3.2-1.2-13.3-5.3-22.5-9.1s-16.9-6.9-17.2-6.9c-.3 0 .1 1.9.9 4.1zM234.8 929.1c-.3 1.3-2.8 12.5-5.6 24.9-6.2 27.5-7.6 34.9-7 35.6 1.4 1.4 11.9-19.8 14.3-28.9 1.5-5.6 1.7-8.8 1.1-18.9-.7-12.3-1.8-17.3-2.8-12.7zM181 977.5c2.4 2.8 9.8 10.6 16.4 17.5 10.5 11.1 11.6 11.9 9.1 7.5-4.3-7.6-8.9-12.9-17.8-20.3-11.7-9.7-12.8-10.3-7.7-4.7z"/>
  <path d="M381.2 988.6c.4 3.2 1.7 9 3 12.9l2.3 7 .3-5.4c.2-3.4-.5-7.9-1.8-12.2-2.7-9.1-4.5-10.2-3.8-2.3zM307 990c1.9 1.3 3 1.3 3 0 0-.6-1-1-2.2-1-1.9 0-2 .2-.8 1zM382.1 1015.6c-.1 1.7.6 3.7 1.4 4.4 1.5 1.3 1.5.9-.8-6-.3-.8-.6-.1-.6 1.6zM133.5 1022.6c-5.4.9-23.4 5.5-27.2 6.9l-3.8 1.5 4-.5c11.5-1.4 58.6-5.2 69.5-5.6l3.5-.1-4-.9c-4.5-1-37.4-2-42-1.3zM231.3 1032.7c-2.2 1.5 51.2 8.4 63.5 8.2l5.7-.1-7-1.9c-14.7-4-29-6.1-45-6.5-8.8-.3-16.6-.1-17.2.3zM386.2 1035.7c-2.1 4.2-2.5 9-2.3 30.9.3 25.4.6 24.2-6.4 26.5l-4 1.3 3.8.6c2 .4 4.1 1 4.5 1.4.7.8 1.3 20.2 3.1 108.6.6 28.9 1.4 56.4 1.7 61.2.6 8.5.8 8.8 3.1 8.8 2.8 0 8.8-2.4 9.7-3.8 1.4-2.3 4.6-25 19.6-136.8 3.3-24.8 7.3-52.9 9-62.5 3.8-22.3 5-34 3.6-34.5-1-.3-40.4-3.4-43.4-3.4-.6 0-1.5.8-2 1.7zM176.5 1040.7c-1.1.3-10.1 3.4-20 7-20.8 7.5-43.4 18.2-52.6 24.9-9.6 7.1-27.1 21.6-26.6 22.1 1 1 69.3-34 90.2-46.3 12.9-7.6 14.7-9.1 9-7.7zM212 1042.9c.8.5 14.6 6.6 30.6 13.5 36 15.5 60.8 26.9 70.3 32.4l7.2 4.2-.3-2.8c-.3-2.3-1.5-3.3-8.8-6.9-22.5-11.1-53.2-24.2-83.3-35.4-15.1-5.7-19-6.9-15.7-5zM190.4 1045.9c-11.1 4-18 9.4-21.9 17.1-3.5 6.8-8.9 23.7-12.5 39-1.7 7.4-3.6 14.7-4 16.2-.5 1.6-.5 2.8-.1 2.8 1.3 0 21.5-21.2 25-26.3 6.5-9.5 18.9-37 21.6-48 .9-3.3-.6-3.5-8.1-.8zM308.1 1050.4c-1.7 1.8-2 2.6-1 2.6 2.4 0 4.1-1.6 3.7-3.5-.2-1.4-.7-1.3-2.7.9z"/>
  <path d="M317.4 1161.2c.9 75.9 2.1 113.5 3.6 115.3 2.3 2.8 11.1 3.7 33.5 3.3 16.2-.2 22.6-.7 24.4-1.7l2.4-1.3-.6-25.2c-.3-13.8-1.1-52.8-1.7-86.6-.7-33.8-1.3-62.1-1.6-62.8-.3-1-6.8-1.2-30.5-1.2l-30.2.1.7 60.1z"/>
</svg>
