<svg aria-hidden="true" style="position: absolute; width: 0; height: 0; overflow: hidden;" version="1.1" xmlns="http://www.w3.org/2000/svg" xmlns:xlink="http://www.w3.org/1999/xlink">
    <defs>
        <symbol id="logo" viewBox="0 0 16 32" fill="#3cb371">
            <path d="M12.865 0.058c-0.070 0.28-0.34 3.777-0.34 4.41 0 0.285-0.008 0.333-0.080 0.542-0.092 0.272-0.105 0.463-0.033 0.582 0.080 0.135 0.137 0.145 0.772 0.138 0.315-0.003 0.578-0.010 0.582-0.013 0.012-0.013 0.057-0.265 0.085-0.468 0.012-0.103 0.035-0.553 0.047-1 0.027-0.882 0.047-1.248 0.127-2.38l0.055-0.743-0.227-0.27c-0.277-0.333-0.57-0.62-0.765-0.755-0.17-0.117-0.205-0.125-0.225-0.045zM11.262 5.072c0.377 0.183 0.773 0.4 0.967 0.53 0.082 0.055 0.155 0.095 0.16 0.090s-0.023-0.055-0.063-0.11c-0.082-0.115-0.238-0.245-0.405-0.343-0.12-0.067-0.838-0.315-0.915-0.315-0.025 0 0.090 0.065 0.255 0.147zM11.287 5.6c-0.040 0.015-0.175 0.075-0.3 0.133l-0.225 0.11 0.338 0.018c0.322 0.018 0.928-0.013 1.162-0.058l0.1-0.020-0.075-0.030c-0.275-0.115-0.845-0.202-1-0.152zM12.175 5.853c-0.152 0.030-0.245 0.067-0.348 0.143-0.127 0.095-0.152 0.185-0.152 0.535l0.002 0.308 0.125-0.138c0.223-0.242 0.598-0.78 0.598-0.855 0-0.025-0.075-0.022-0.225 0.008zM12.402 5.928c-0.047 0.157-0.037 0.452 0.018 0.577 0.045 0.1 0.27 0.415 0.418 0.583l0.065 0.075-0.018-0.162c-0.020-0.207-0.113-0.572-0.195-0.775-0.060-0.15-0.213-0.4-0.242-0.4-0.008 0-0.027 0.045-0.045 0.103z"></path>
            <path d="M12.775 6.093c0 0.053 0.040 0.253 0.090 0.445 0.088 0.345 0.14 0.787 0.095 0.787-0.035 0-0.238-0.22-0.345-0.37-0.050-0.075-0.15-0.24-0.217-0.37-0.070-0.13-0.137-0.24-0.15-0.25-0.033-0.020-0.040 0.015-0.070 0.44-0.055 0.73-0.375 3.662-0.477 4.362-0.043 0.305-0.11 0.543-0.285 1.030-0.070 0.193-0.082 0.355-0.037 0.4 0.020 0.020 0.088 0.025 0.195 0.015 0.090-0.008 0.332 0.005 0.537 0.027 0.598 0.065 0.818 0.050 0.85-0.053 0.063-0.195 0.445-2.695 0.602-3.908 0.125-0.98 0.213-1.995 0.213-2.478v-0.090l-0.355-0.043c-0.197-0.022-0.422-0.040-0.5-0.040h-0.145v0.093zM7.513 8.018c-0.010 0.025-0.027 0.775-0.040 1.67-0.025 2.095-0.025 2.102-0.185 2.477-0.048 0.113-0.088 0.217-0.088 0.235 0 0.035 0.207 0.027 0.763-0.025 0.137-0.012 0.383-0.023 0.545-0.025h0.297l-0.015-1.357c-0.010-0.745-0.023-1.563-0.030-1.815l-0.015-0.457-0.33-0.215c-0.393-0.258-0.84-0.53-0.865-0.53-0.010 0-0.027 0.020-0.037 0.042zM7.582 12.65c-0.145 0.030-0.2 0.063-0.25 0.158-0.040 0.070-0.045 0.145-0.040 0.568 0.003 0.49 0.072 1.572 0.147 2.277 0.053 0.5 0.105 0.708 0.235 0.9 0.157 0.227 0.207 0.36 0.225 0.593 0.013 0.137 0.030 0.22 0.058 0.247 0.082 0.082 0.707 0.063 0.902-0.030 0.137-0.065 0.152-0.135 0.15-0.7-0.005-0.475-0.027-0.905-0.172-3.072-0.035-0.508-0.063-0.93-0.063-0.943 0-0.027-1.050-0.025-1.192 0.002zM11.342 12.73c-0.050 0.037-0.152 0.52-0.443 2.107-0.22 1.208-0.363 2.080-0.512 3.14-0.123 0.855-0.13 1.027-0.050 1.108 0.030 0.027 0.223 0.073 0.55 0.125 0.115 0.017 0.713-0.035 0.8-0.070 0.075-0.032 0.080-0.040 0.133-0.343 0.068-0.383 0.182-1.090 0.38-2.36 0.090-0.57 0.225-1.313 0.328-1.787 0.287-1.335 0.318-1.48 0.325-1.66 0.010-0.17 0.010-0.172-0.057-0.193-0.065-0.018-0.515-0.053-1.133-0.085-0.21-0.012-0.285-0.008-0.32 0.018zM7.255 16.53c0.117 0.128 0.28 0.32 0.365 0.427 0.14 0.177 0.155 0.19 0.155 0.125-0.003-0.185-0.2-0.44-0.513-0.655-0.1-0.070-0.19-0.128-0.2-0.128s0.077 0.105 0.192 0.23zM5.975 16.957l-0.213 0.025 0.112 0.035c0.345 0.102 1.51 0.325 1.58 0.302 0.048-0.017-0.365-0.23-0.6-0.31-0.268-0.093-0.452-0.105-0.88-0.052zM7.475 17.005c0 0.082 0.075 0.215 0.162 0.28 0.050 0.040 0.095 0.065 0.103 0.060 0.005-0.005-0.043-0.082-0.105-0.172-0.147-0.205-0.16-0.218-0.16-0.168zM6.77 17.512c-0.235 0.065-0.35 0.142-0.612 0.41-0.14 0.145-0.25 0.267-0.245 0.273 0.037 0.038 1.588-0.645 1.588-0.7 0-0.032-0.6-0.020-0.73 0.017zM7.558 17.672c-0.195 0.155-0.38 0.367-0.447 0.512-0.058 0.125-0.060 0.16-0.055 0.442l0.008 0.308 0.098-0.135c0.155-0.212 0.355-0.563 0.438-0.762 0.075-0.18 0.138-0.462 0.1-0.462-0.010 0-0.072 0.043-0.14 0.098zM7.795 17.83c-0.022 0.090-0.095 0.277-0.16 0.42l-0.12 0.255 0.058 0.755c0.090 1.2 0.225 2.867 0.242 2.983 0.027 0.19 0.045 0.195 0.62 0.195h0.502l0.207-0.12c0.155-0.093 0.205-0.135 0.205-0.175 0-0.045-0.080-1.15-0.273-3.788-0.025-0.348-0.055-0.64-0.063-0.65-0.010-0.010-0.28-0.020-0.598-0.025l-0.58-0.010-0.043 0.16zM12.8 18.902c-0.102 0.027-0.197 0.063-0.213 0.078-0.018 0.020-0.012 0.023 0.020 0.010 0.025-0.008 0.313-0.015 0.637-0.015 0.345 0 0.578-0.010 0.555-0.023-0.063-0.038-0.498-0.102-0.66-0.1-0.085 0-0.238 0.023-0.34 0.050zM12.475 19.398c0 0.025 0.34 0.335 0.6 0.543 0.38 0.305 0.7 0.535 0.7 0.505 0-0.017-0.057-0.148-0.127-0.288-0.145-0.293-0.248-0.398-0.518-0.54-0.255-0.133-0.655-0.267-0.655-0.22zM10.287 19.425c-0.030 0.010-0.065 0.038-0.082 0.058-0.043 0.050-0.352 2.328-0.322 2.358 0.008 0.008 0.063 0 0.12-0.017 0.078-0.025 0.295-0.032 0.755-0.030 0.352 0.003 0.643-0.005 0.645-0.012 0-0.010 0.037-0.31 0.082-0.668s0.078-0.655 0.075-0.66c-0.005-0.005-0.068 0.030-0.14 0.080-0.295 0.192-1.030 0.565-1.063 0.532-0.018-0.015 0.080-0.183 0.275-0.477 0.207-0.313 0.34-0.48 0.623-0.8 0.178-0.198 0.235-0.277 0.21-0.293-0.117-0.065-1.053-0.122-1.178-0.070z"></path>
            <path d="M11.813 19.48c-0.205 0.16-0.547 0.515-0.735 0.758-0.207 0.267-0.352 0.475-0.352 0.5s0.357-0.172 0.58-0.32c0.268-0.175 0.465-0.455 0.598-0.84 0.072-0.21 0.063-0.22-0.090-0.098zM12.217 19.497c-0.023 0.108-0.023 1.273-0.002 1.475 0.010 0.082 0.025 0.152 0.035 0.152s0.095-0.15 0.188-0.335c0.15-0.295 0.17-0.358 0.182-0.512 0.008-0.108 0-0.223-0.020-0.293-0.033-0.117-0.162-0.332-0.293-0.483l-0.075-0.087-0.015 0.082zM10.125 21.938c-0.090 0.017-0.19 0.045-0.225 0.060-0.053 0.025-0.040 0.027 0.075 0.017 0.238-0.020 0.838-0.095 0.848-0.105 0.025-0.025-0.55-0.003-0.697 0.027zM10.8 22.055c-0.345 0.035-0.928 0.117-0.953 0.133-0.057 0.038-0.008 0.060 0.21 0.098 0.525 0.095 0.748 0.192 1.008 0.45l0.182 0.177 0.015-0.087c0.043-0.258 0.102-0.777 0.092-0.788-0.020-0.017-0.307-0.010-0.555 0.017z"></path>
            <path d="M9.732 22.41c0.133 0.1 1.357 0.633 1.387 0.602 0.025-0.023-0.3-0.337-0.408-0.392-0.165-0.085-0.36-0.142-0.658-0.195-0.348-0.060-0.385-0.063-0.322-0.015zM8.995 22.585c-0.090 0.075-0.242 0.233-0.34 0.35-0.188 0.227-0.467 0.635-0.45 0.652s0.422-0.23 0.58-0.355c0.155-0.12 0.262-0.273 0.338-0.47 0.063-0.163 0.090-0.313 0.060-0.313-0.012 0-0.098 0.060-0.188 0.135zM9.463 22.58c0.030 0.235 0.113 0.625 0.193 0.902 0.065 0.22 0.085 0.265 0.11 0.238 0.040-0.040 0.2-0.453 0.223-0.573 0.023-0.125-0.025-0.282-0.12-0.39-0.085-0.098-0.357-0.308-0.398-0.308-0.015 0-0.018 0.050-0.008 0.13z"></path>
            <path d="M8.35 22.63c-0.2 0.010-0.395 0.027-0.438 0.040l-0.075 0.023 0.005 0.747c0.003 0.41 0.027 1.375 0.055 2.142l0.053 1.395 0.082 0.080c0.045 0.045 0.1 0.108 0.123 0.142l0.037 0.063 0.543-0.005c0.475-0.005 0.555-0.012 0.652-0.055 0.080-0.035 0.107-0.060 0.1-0.095-0.010-0.047-0.040-0.845-0.1-2.758-0.043-1.305-0.060-1.625-0.090-1.625-0.012 0-0.023 0.012-0.023 0.027s-0.035 0.098-0.080 0.185c-0.14 0.285-0.44 0.527-1 0.813-0.16 0.082-0.298 0.15-0.305 0.15-0.022 0 0.067-0.172 0.217-0.425 0.12-0.203 0.37-0.55 0.545-0.758 0.043-0.052 0.075-0.098 0.070-0.1s-0.172 0.003-0.373 0.012zM10.088 22.852c0.080 0.225 0.025 0.468-0.24 1.040l-0.102 0.22-0.057-0.113c-0.068-0.128-0.078-0.117-0.11 0.122-0.020 0.157-0.018 0.165 0.075 0.337 0.165 0.313 0.217 0.675 0.135 0.95-0.020 0.067-0.035 0.128-0.030 0.133 0.025 0.023 0.775 0.063 0.897 0.047 0.227-0.030 0.258-0.067 0.305-0.383 0.055-0.37 0.24-1.863 0.24-1.94 0-0.055-0.020-0.073-0.143-0.117-0.080-0.030-0.332-0.133-0.563-0.227s-0.422-0.172-0.43-0.172c-0.008 0 0.002 0.047 0.023 0.102zM5.87 23.227c-0.008 0.032-0.070 0.313-0.14 0.622-0.155 0.688-0.19 0.872-0.175 0.89 0.035 0.035 0.298-0.495 0.357-0.723 0.037-0.14 0.043-0.22 0.027-0.473-0.018-0.308-0.045-0.433-0.070-0.317zM4.525 24.438c0.060 0.070 0.245 0.265 0.41 0.438 0.263 0.277 0.29 0.297 0.228 0.188-0.107-0.19-0.223-0.323-0.445-0.508-0.292-0.242-0.32-0.258-0.192-0.117z"></path>
            <path d="M9.53 24.715c0.010 0.080 0.043 0.225 0.075 0.323l0.057 0.175 0.008-0.135c0.005-0.085-0.012-0.198-0.045-0.305-0.068-0.227-0.113-0.255-0.095-0.058zM7.675 24.75c0.048 0.032 0.075 0.032 0.075 0 0-0.015-0.025-0.025-0.055-0.025-0.048 0-0.050 0.005-0.020 0.025zM9.553 25.39c-0.002 0.043 0.015 0.093 0.035 0.11 0.037 0.032 0.037 0.023-0.020-0.15-0.008-0.020-0.015-0.003-0.015 0.040zM3.337 25.565c-0.135 0.023-0.585 0.137-0.68 0.172l-0.095 0.038 0.1-0.012c0.288-0.035 1.465-0.13 1.737-0.14l0.088-0.003-0.1-0.023c-0.112-0.025-0.935-0.050-1.050-0.032zM5.782 25.817c-0.055 0.038 1.28 0.21 1.587 0.205l0.143-0.003-0.175-0.047c-0.367-0.1-0.725-0.152-1.125-0.163-0.22-0.008-0.415-0.003-0.43 0.008zM9.655 25.892c-0.053 0.105-0.063 0.225-0.057 0.773 0.008 0.635 0.015 0.605-0.16 0.663l-0.1 0.032 0.095 0.015c0.050 0.010 0.102 0.025 0.113 0.035 0.018 0.020 0.033 0.505 0.078 2.715 0.015 0.723 0.035 1.41 0.043 1.53 0.015 0.212 0.020 0.22 0.078 0.22 0.070 0 0.22-0.060 0.242-0.095 0.035-0.058 0.115-0.625 0.49-3.42 0.082-0.62 0.182-1.323 0.225-1.563 0.095-0.558 0.125-0.85 0.090-0.863-0.025-0.008-1.010-0.085-1.085-0.085-0.015 0-0.037 0.020-0.050 0.043zM4.412 26.017c-0.027 0.008-0.253 0.085-0.5 0.175-0.52 0.188-1.085 0.455-1.315 0.622-0.24 0.177-0.677 0.54-0.665 0.552 0.025 0.025 1.732-0.85 2.255-1.157 0.322-0.19 0.367-0.227 0.225-0.192zM5.3 26.073c0.020 0.012 0.365 0.165 0.765 0.337 0.9 0.387 1.52 0.672 1.758 0.81l0.18 0.105-0.008-0.070c-0.008-0.058-0.037-0.082-0.22-0.172-0.563-0.277-1.33-0.605-2.083-0.885-0.378-0.142-0.475-0.172-0.393-0.125zM4.76 26.148c-0.277 0.1-0.45 0.235-0.548 0.427-0.088 0.17-0.223 0.593-0.313 0.975-0.042 0.185-0.090 0.367-0.1 0.405-0.013 0.040-0.013 0.070-0.002 0.070 0.033 0 0.537-0.53 0.625-0.657 0.162-0.238 0.473-0.925 0.54-1.2 0.022-0.082-0.015-0.087-0.202-0.020zM7.702 26.26c-0.043 0.045-0.050 0.065-0.025 0.065 0.060 0 0.103-0.040 0.093-0.087-0.005-0.035-0.018-0.032-0.067 0.023z"></path>
            <path d="M7.935 29.030c0.022 1.898 0.053 2.837 0.090 2.883 0.057 0.070 0.277 0.093 0.838 0.082 0.405-0.005 0.565-0.017 0.61-0.043l0.060-0.032-0.015-0.63c-0.008-0.345-0.027-1.32-0.043-2.165-0.018-0.845-0.033-1.552-0.040-1.57-0.008-0.025-0.17-0.030-0.762-0.030l-0.755 0.003 0.018 1.503z"></path>
        </symbol>
        <symbol id="icon-Fb" viewBox="0 0 32 32">
            <path fill="#currentColor" d="M30.853 16c0-8.203-6.907-14.854-15.427-14.854-8.518 0-15.426 6.651-15.426 14.854 0 7.414 5.64 13.56 13.016 14.675v-10.379h-3.918v-4.296h3.918v-3.272c0-3.723 2.304-5.781 5.827-5.781 1.688 0 3.453 0.291 3.453 0.291v3.656h-1.944c-1.915 0-2.514 1.144-2.514 2.32v2.786h4.277l-0.683 4.296h-3.594v10.381c7.376-1.115 13.016-7.261 13.016-14.677z"></path>
        </symbol>
        <symbol id="icon-Insta" viewBox="0 0 32 32">
            <path fill="#currentColor"  d="M21.854 3.621c1.761 0.001 3.36 0.694 4.54 1.822l-0.002-0.002c1.155 1.103 1.876 2.652 1.888 4.369v12.38c-0.011 1.72-0.733 3.269-1.886 4.371l-0.002 0.002c-1.178 1.125-2.777 1.818-4.538 1.818-0 0-0.001 0-0.001 0h-12.856c-0 0-0.001 0-0.001 0-1.761 0-3.361-0.692-4.541-1.82l0.003 0.002c-1.155-1.103-1.876-2.652-1.888-4.369v-12.383c0.012-1.719 0.734-3.267 1.887-4.367l0.002-0.002c1.178-1.126 2.778-1.819 4.539-1.819h12.856zM21.854 1.146h-12.858c-4.947 0-8.997 3.899-8.997 8.666v12.378c0 4.768 4.048 8.667 8.998 8.667h12.856c4.949 0 8.998-3.901 8.998-8.667v-12.378c0-4.766-4.050-8.666-9-8.666z"></path>
            <path fill="#currentColor"  d="M23.782 9.813c-0.382 0-0.755-0.109-1.072-0.314-0.313-0.201-0.557-0.485-0.706-0.82l-0.005-0.012c-0.092-0.209-0.146-0.453-0.146-0.709 0-0.129 0.014-0.255 0.040-0.376l-0.002 0.012c0.074-0.36 0.258-0.691 0.528-0.952 0.264-0.253 0.6-0.433 0.975-0.505l0.012-0.002c0.374-0.072 0.762-0.035 1.114 0.106s0.653 0.378 0.864 0.683c0.204 0.289 0.326 0.648 0.326 1.035 0 0.515-0.216 0.98-0.562 1.31l-0.001 0.001c-0.355 0.336-0.836 0.543-1.365 0.544h-0zM15.427 11.050c1.016 0 2.011 0.291 2.856 0.835 0.846 0.544 1.504 1.317 1.894 2.222 0.389 0.904 0.491 1.899 0.293 2.861-0.198 0.96-0.688 1.843-1.408 2.534-0.705 0.675-1.602 1.156-2.601 1.35l-0.033 0.005c-0.301 0.060-0.648 0.095-1.002 0.095-0.709 0-1.385-0.138-2.003-0.389l0.036 0.013c-0.951-0.383-1.736-1.011-2.298-1.808l-0.011-0.016c-0.541-0.768-0.865-1.722-0.866-2.752v-0c0-1.312 0.544-2.57 1.507-3.499 0.94-0.898 2.217-1.451 3.624-1.451 0.004 0 0.008 0 0.012 0h-0.001zM15.427 8.574c-1.526 0-3.018 0.435-4.286 1.251-1.25 0.808-2.227 1.943-2.821 3.285l-0.019 0.048c-0.372 0.838-0.588 1.816-0.588 2.844 0 0.513 0.054 1.013 0.156 1.496l-0.008-0.047c0.298 1.44 1.034 2.763 2.112 3.802 1.057 1.013 2.402 1.733 3.9 2.024l0.049 0.008c1.496 0.288 3.046 0.141 4.456-0.421 1.426-0.574 2.603-1.517 3.446-2.712l0.016-0.024c0.811-1.151 1.297-2.583 1.299-4.128v-0c-0.007-2.065-0.872-3.927-2.256-5.249l-0.003-0.003c-1.409-1.347-3.324-2.176-5.432-2.176-0.007 0-0.015 0-0.022 0h0.001z"></path>
        </symbol>
        <symbol id="icon-Pintrest" viewBox="0 0 30 32">
            <path fill="#currentColor"  d="M14.929 1.091c-8.244 0-14.929 6.68-14.929 14.921 0 6.109 3.678 11.358 8.937 13.669-0.040-1.038-0.008-2.29 0.259-3.424l1.92-8.133s-0.48-0.952-0.48-2.359c0-2.211 1.28-3.863 2.88-3.863 1.359 0 2.011 1.019 2.011 2.238 0 1.365-0.873 3.404-1.32 5.295-0.373 1.585 0.792 2.871 2.36 2.871 2.825 0 4.731-3.63 4.731-7.933 0-3.272-2.206-5.716-6.211-5.716-4.526 0-7.351 3.377-7.351 7.147 0 1.3 0.386 2.219 0.986 2.926 0.274 0.326 0.312 0.459 0.213 0.832-0.073 0.274-0.233 0.933-0.306 1.199-0.101 0.381-0.407 0.514-0.747 0.373-2.088-0.853-3.060-3.131-3.060-5.702 0-4.236 3.579-9.32 10.67-9.32 5.699 0 9.451 4.123 9.451 8.547 0 5.854-3.259 10.225-8.058 10.225-1.612 0-3.124-0.873-3.645-1.859 0 0-0.866 3.438-1.051 4.104-0.314 1.154-0.934 2.298-1.501 3.198 1.267 0.387 2.723 0.611 4.231 0.613h0.001c8.244 0 14.929-6.682 14.929-14.923 0-8.239-6.677-14.927-14.921-14.927z"></path>
        </symbol>
        <symbol id="icon-Twiter" viewBox="0 0 37 32">
            <path fill="#currentColor"  d="M36.729 4.754c-1.26 0.564-2.721 0.976-4.252 1.164l-0.075 0.008c1.554-0.921 2.725-2.348 3.3-4.049l0.015-0.053c-1.379 0.821-2.984 1.445-4.692 1.782l-0.096 0.016c-1.384-1.448-3.33-2.348-5.487-2.348-0.005 0-0.011 0-0.016 0h0.001c-4.164 0-7.534 3.321-7.534 7.413-0.002 0.569 0.062 1.138 0.196 1.692-6.259-0.302-11.776-3.239-15.506-7.716l-0.028-0.035c-0.642 1.065-1.022 2.351-1.024 3.726v0c0.010 2.576 1.335 4.84 3.339 6.157l0.028 0.017c-1.262-0.030-2.439-0.369-3.465-0.944l0.038 0.019v0.091c0 3.596 2.603 6.588 6.044 7.271-0.647 0.171-1.314 0.258-1.984 0.26-0.003 0-0.006 0-0.009 0-0.498 0-0.985-0.050-1.455-0.147l0.047 0.008c0.958 2.946 3.744 5.088 7.044 5.15-2.551 1.983-5.799 3.179-9.326 3.179-0.645 0-1.281-0.040-1.906-0.118l0.075 0.008c3.247 2.102 7.216 3.351 11.476 3.351 0.020 0 0.041-0 0.061-0h-0.003c13.877 0 21.458-11.301 21.458-21.104 0-0.32-0.007-0.644-0.021-0.956 1.479-1.060 2.725-2.333 3.725-3.788l0.033-0.052z"></path>
        </symbol>       
    </defs>
</svg>
